<svg xmlns="http://www.w3.org/2000/svg" xmlns:xlink="http://www.w3.org/1999/xlink" viewBox="0 0 152.12 245.67"><defs><style>.cls-1{fill:url(#New_Gradient_Swatch_1);}.cls-2{fill:url(#New_Gradient_Swatch_1-2);}.cls-3{fill:url(#New_Gradient_Swatch_1-3);}</style><linearGradient id="New_Gradient_Swatch_1" x1="83.13" y1="-94.49" x2="68.67" y2="225.93" gradientUnits="userSpaceOnUse"><stop offset="0" stop-color="#281809"/><stop offset="0" stop-color="#2e1b0b"/><stop offset="0" stop-color="#492b13"/><stop offset="0" stop-color="#5f3719"/><stop offset="0" stop-color="#70411e"/><stop offset="0.01" stop-color="#7b4821"/><stop offset="0.01" stop-color="#824c23"/><stop offset="0.02" stop-color="#844d24"/><stop offset="0.04" stop-color="#f7e68a"/><stop offset="0.07" stop-color="#8e5b22"/><stop offset="0.09" stop-color="#9a682b"/><stop offset="0.12" stop-color="#ba8a43"/><stop offset="0.16" stop-color="#e8ba65"/><stop offset="0.32" stop-color="#f8e889"/><stop offset="0.72" stop-color="#e6b964"/><stop offset="1" stop-color="#603913"/></linearGradient><linearGradient id="New_Gradient_Swatch_1-2" x1="56.69" y1="-95.68" x2="42.23" y2="224.74" xlink:href="#New_Gradient_Swatch_1"/><linearGradient id="New_Gradient_Swatch_1-3" x1="137.37" y1="-92.04" x2="122.91" y2="228.38" xlink:href="#New_Gradient_Swatch_1"/></defs><g id="Layer_2" data-name="Layer 2"><g id="Layer_1-2" data-name="Layer 1"><path class="cls-1" d="M131.66,55.22,76.26,0,21.1,54.9,37.41,71.07l9-8.72-8-7.15L76.06,17.39l37.2,37.55L75.61,92.5l-11-11.17L55.76,90c4,4,8.09,8.16,12.35,12.17a6.6,6.6,0,0,1,2.15,5.33q0,43.5.18,87c0,2.29,0,12.47,0,23.18H48v9.71H70.45v7.88H48v10.31H70.45v.08H81.93v-.08h0V241c.09-12,.19-41.28.2-45,.08-29.71.09-59.42.26-89.13a6.94,6.94,0,0,1,1.83-4.44c7.9-8.1,16-16.05,24-24Q120,66.77,131.66,55.22Z"/><path class="cls-2" d="M52.71,201.77c.16-15.25.25-30.51.48-45.76a6.3,6.3,0,0,0-2.09-5c-8.19-8.09-16.31-16.26-24.44-24.42-2.9-2.91-5.76-5.85-8.23-8.38l58-58.51,11.19,12.2,8.48-8.65c-6.67-6.63-13.52-13.45-20-19.89L1,117.93c.87.92,1.74,1.89,2.67,2.81,11.75,11.69,23.53,23.33,35.2,35.09a7.69,7.69,0,0,1,2.23,4.63c.24,10.3.14,20.61.28,30.92,0,2.47-1,3.06-3.25,3-7.57-.12-15.15-.06-22.73-.07-4,0-4,0-4-4,.05-15.76.14-31.53.18-47.29,0-1.09.16-2.52-.43-3.2-3.55-4-7.31-7.9-11.11-12,0,25.94.13,51.57.13,77.06l29.22,1h23C52.48,204.52,52.7,203.14,52.71,201.77Z"/><path class="cls-3" d="M152.11,126.28c-4,4.21-7.33,7.56-10.4,11.16a7.54,7.54,0,0,0-1.72,4.5q-.11,24.56.14,49.11c0,2.57-.82,3.3-3.3,3.26-7.88-.11-15.76-.08-23.64,0-2.12,0-2.84-.69-2.82-2.8.12-10.31,0-20.62.25-30.92a7.4,7.4,0,0,1,1.91-4.45c4.44-4.7,9.12-9.17,13.7-13.74l24.31-24.28-36.09-36-8.51,8,28,27.86a15.45,15.45,0,0,0-1.88,1.34q-15.74,15.76-31.43,31.59c-1,1-2.11,2.46-2.11,3.71,0,16.47.12,32.94.17,49.42,0,1.64.62,2.05,2.15,2.05q24.25,0,48.51.06c1.71,0,2.36-.65,2.37-2.29,0-3.14.21-6.26.22-9.4q.1-32.13.17-64.27C152.12,129.19,152.11,128.17,152.11,126.28Z"/></g></g></svg>